<!DOCTYPE svg PUBLIC "-//W3C//DTD SVG 1.1//EN" "http://www.w3.org/Graphics/SVG/1.1/DTD/svg11.dtd">
<!-- Uploaded to: SVG Repo, www.svgrepo.com, Transformed by: SVG Repo Mixer Tools -->
<svg fill="#bfbfbf" width="188px" height="188px" viewBox="-3.84 -3.84 39.68 39.68" xmlns="http://www.w3.org/2000/svg" stroke="#bfbfbf" stroke-width="0.00032">
<g id="SVGRepo_bgCarrier" stroke-width="0">
<rect x="-3.84" y="-3.84" width="39.68" height="39.68" rx="0.3968" fill="#e6e6e6" strokewidth="0"/>
</g>
<g id="SVGRepo_tracerCarrier" stroke-linecap="round" stroke-linejoin="round"/>
<g id="SVGRepo_iconCarrier"> <title/> <g id="about"> <path d="M16,16A7,7,0,1,0,9,9,7,7,0,0,0,16,16ZM16,4a5,5,0,1,1-5,5A5,5,0,0,1,16,4Z"/> <path d="M17,18H15A11,11,0,0,0,4,29a1,1,0,0,0,1,1H27a1,1,0,0,0,1-1A11,11,0,0,0,17,18ZM6.06,28A9,9,0,0,1,15,20h2a9,9,0,0,1,8.94,8Z"/> </g> </g>
</svg>