<?xml version="1.0" standalone="no"?>
<!DOCTYPE svg PUBLIC "-//W3C//DTD SVG 20010904//EN"
 "http://www.w3.org/TR/2001/REC-SVG-20010904/DTD/svg10.dtd">
<svg version="1.0" xmlns="http://www.w3.org/2000/svg"
 width="500.000000pt" height="500.000000pt" viewBox="0 0 500.000000 500.000000"
 preserveAspectRatio="xMidYMid meet">

<g transform="translate(0.000000,500.000000) scale(0.100000,-0.100000)"
fill="#6a0dad" stroke="none">
<path d="M2415 4574 c-9 -9 -18 -28 -21 -43 -5 -21 -158 -131 -859 -616 -515
-355 -860 -600 -869 -616 -22 -37 -20 -107 4 -146 27 -45 65 -66 119 -67 45
-1 62 10 784 509 405 281 790 547 855 591 l118 82 798 -609 c569 -434 808
-610 832 -615 47 -9 78 1 119 37 46 40 62 95 46 149 -13 45 -24 54 -326 284
l-170 129 0 262 0 261 -25 37 c-43 63 -81 77 -210 77 -97 0 -118 -3 -152 -22
-58 -33 -82 -78 -88 -171 l-5 -78 -322 246 c-288 219 -323 249 -323 274 0 52
-23 61 -163 61 -102 0 -129 -3 -142 -16z"/>
<path d="M1952 3609 c-72 -36 -72 -34 -72 -422 0 -340 0 -344 23 -378 29 -44
98 -79 157 -79 25 0 51 -5 58 -12 7 -7 12 -37 12 -68 0 -115 47 -129 148 -43
37 31 96 70 132 87 l65 31 286 5 c284 5 286 5 322 30 69 47 68 43 65 444 l-3
359 -38 31 -39 31 -536 3 c-531 2 -537 2 -580 -19z m1096 -91 c9 -9 12 -96 12
-330 0 -305 -1 -319 -20 -338 -19 -19 -33 -20 -267 -20 -183 0 -264 -4 -311
-15 -66 -16 -160 -59 -202 -93 l-25 -20 -20 41 c-28 59 -74 87 -143 87 -96 0
-92 -18 -92 361 0 252 3 328 13 332 6 3 244 6 527 6 389 1 519 -2 528 -11z"/>
<path d="M2672 3324 c-16 -11 -22 -25 -22 -53 0 -46 24 -71 67 -71 39 0 63 28
63 73 0 39 -27 67 -65 67 -11 0 -31 -7 -43 -16z"/>
<path d="M2883 3250 c-39 -303 -236 -374 -628 -224 -113 43 -108 42 -112 23
-5 -21 104 -68 239 -104 339 -91 515 15 543 328 5 60 4 67 -13 67 -15 0 -20
-14 -29 -90z"/>
<path d="M2332 3310 c-26 -24 -29 -66 -6 -98 22 -32 76 -30 103 4 27 35 26 59
-4 89 -29 30 -64 32 -93 5z"/>
<path d="M1354 2966 c-107 -26 -204 -107 -257 -215 -30 -61 -32 -73 -32 -166
0 -93 2 -105 32 -165 100 -204 329 -284 530 -185 154 76 246 254 214 413 -46
233 -261 373 -487 318z"/>
<path d="M3510 2970 c-111 -28 -222 -116 -268 -212 -74 -153 -44 -327 78 -448
157 -158 393 -158 550 0 122 121 152 295 79 448 -34 71 -133 163 -204 191 -66
25 -180 35 -235 21z"/>
<path d="M1300 2126 c-218 -50 -400 -206 -483 -416 -38 -98 -49 -171 -45 -316
3 -122 5 -133 30 -171 17 -26 45 -50 79 -67 l53 -26 1580 0 c1073 0 1593 3
1619 11 44 12 101 59 125 103 14 25 17 58 17 181 0 128 -4 161 -24 225 -61
196 -184 340 -365 426 -326 155 -726 22 -895 -295 -61 -116 -75 -181 -76 -348
l0 -153 -392 0 -393 0 0 146 c0 167 -12 228 -68 344 -54 111 -187 242 -302
298 -47 23 -114 48 -150 56 -77 19 -232 19 -310 2z"/>
</g>
</svg>
