<?xml version="1.0" standalone="no"?>
<!DOCTYPE svg PUBLIC "-//W3C//DTD SVG 20010904//EN"
 "http://www.w3.org/TR/2001/REC-SVG-20010904/DTD/svg10.dtd">
<svg version="1.0" xmlns="http://www.w3.org/2000/svg"
 width="1024.000000pt" height="1024.000000pt" viewBox="0 0 1024.000000 1024.000000"
 preserveAspectRatio="xMidYMid meet">

<g transform="translate(0.000000,1024.000000) scale(0.100000,-0.100000)"
fill="#6a0dad" stroke="none">
<path d="M5033 8896 c-49 -16 -73 -33 -768 -525 -1132 -801 -1622 -1154 -1667
-1200 -50 -52 -74 -112 -64 -165 17 -88 96 -144 189 -132 61 7 55 3 582 377
220 157 580 413 800 569 220 156 522 370 670 475 149 106 287 198 309 205 30
10 47 10 77 1 23 -7 247 -161 536 -368 1096 -785 1730 -1233 1770 -1249 68
-29 144 -12 198 45 24 26 30 41 33 94 6 112 2 116 -409 412 l-259 187 0 406
c0 454 0 451 -70 500 -32 21 -41 22 -264 22 -259 0 -280 -5 -323 -69 -22 -32
-23 -44 -23 -207 0 -96 -2 -174 -5 -174 -4 0 -406 292 -635 461 -175 129 -417
297 -464 321 -51 26 -155 33 -213 14z"/>
<path d="M4675 7639 c-216 -15 -399 -151 -467 -347 -22 -65 -23 -79 -23 -387
0 -283 2 -326 18 -372 41 -116 143 -237 248 -293 59 -31 191 -70 238 -70 l26
0 0 -138 c1 -110 4 -143 18 -169 21 -40 63 -63 115 -63 43 0 38 -3 385 253
l159 117 91 0 c51 0 122 7 159 14 186 40 335 171 395 349 l28 82 0 290 c0 273
-1 294 -22 361 -55 175 -213 323 -388 363 -55 13 -824 21 -980 10z m988 -177
c76 -31 168 -116 204 -190 l28 -57 0 -305 0 -305 -32 -66 c-71 -145 -199 -209
-419 -209 -118 0 -93 13 -374 -193 l-185 -136 -3 151 c-1 91 -7 157 -13 165
-8 9 -38 13 -95 13 -201 0 -334 72 -402 218 -27 57 -27 58 -30 329 -4 297 2
340 54 430 28 47 97 114 143 137 82 43 115 45 601 43 462 -2 465 -2 523 -25z"/>
<path d="M4805 7125 c-43 -43 -31 -111 26 -140 41 -22 93 -5 114 35 21 41 19
64 -11 99 -34 41 -92 44 -129 6z"/>
<path d="M5315 7125 c-33 -32 -33 -84 -1 -122 19 -22 32 -28 66 -28 80 0 116
82 64 144 -34 41 -92 44 -129 6z"/>
<path d="M4784 6789 c-22 -11 -44 -48 -44 -74 0 -22 58 -83 105 -110 155 -91
362 -97 524 -16 117 60 158 125 113 182 -27 32 -71 29 -118 -8 -52 -40 -88
-58 -153 -73 -109 -26 -238 2 -322 70 -43 34 -76 43 -105 29z"/>
<path d="M3380 6734 c-276 -59 -478 -327 -456 -605 12 -151 64 -267 166 -369
147 -147 350 -202 554 -150 104 26 176 69 262 154 115 115 168 241 168 406 1
369 -335 642 -694 564z"/>
<path d="M6602 6730 c-107 -28 -187 -75 -268 -155 -304 -302 -187 -811 222
-956 83 -30 228 -37 314 -14 207 54 374 218 425 420 20 78 19 226 -1 296 -62
209 -232 371 -439 414 -93 19 -164 18 -253 -5z"/>
<path d="M3390 5409 c-278 -6 -299 -9 -426 -61 -213 -88 -380 -277 -446 -505
-21 -70 -23 -99 -23 -298 0 -219 0 -220 27 -271 30 -57 80 -105 136 -132 35
-16 176 -17 2437 -20 2721 -3 2468 -11 2561 82 79 79 87 118 81 365 -3 144 -9
213 -22 261 -77 283 -289 489 -578 561 -72 18 -113 20 -394 20 -186 0 -338 -5
-374 -11 -256 -47 -483 -230 -586 -475 -39 -92 -53 -192 -53 -380 l0 -175
-609 0 -608 0 -6 183 c-3 102 -12 211 -21 249 -79 357 -374 596 -751 610 -44
2 -199 0 -345 -3z"/>
<path d="M1350 3056 l0 -526 105 0 105 0 0 190 0 190 88 0 87 0 96 -188 97
-187 111 -3 c61 -1 111 0 111 4 0 3 -38 77 -84 163 -46 86 -93 175 -105 198
l-21 41 45 26 c97 57 151 171 143 300 -9 130 -76 229 -191 282 l-62 29 -262 3
-263 3 0 -525z m497 324 c50 -30 68 -65 68 -136 0 -68 -15 -98 -69 -138 -24
-18 -45 -21 -157 -25 l-129 -3 0 161 0 161 128 0 c108 0 132 -3 159 -20z"/>
<path d="M7735 3504 c-11 -2 -46 -6 -77 -9 l-57 -6 -3 -92 -3 -92 -72 1 -73 0
0 -83 0 -83 74 0 75 0 3 -233 3 -234 30 -48 c41 -66 104 -99 200 -103 39 -2
90 1 113 7 l42 12 0 78 0 78 -55 -5 c-30 -2 -67 1 -83 7 -52 22 -57 39 -60
249 l-4 192 102 0 101 0 -3 81 -3 82 -97 -2 -98 -2 0 105 c0 114 3 109 -55
100z"/>
<path d="M2539 3320 c-216 -27 -365 -234 -331 -462 21 -140 100 -250 220 -306
51 -24 68 -27 172 -27 110 0 119 2 181 32 85 42 145 102 183 183 29 61 31 72
31 180 0 96 -4 124 -23 172 -65 161 -237 252 -433 228z m178 -202 c56 -37 77
-85 81 -188 3 -78 1 -90 -25 -139 -36 -69 -90 -101 -169 -101 -89 0 -137 29
-177 105 -30 58 -30 194 0 250 40 77 96 107 189 102 46 -2 72 -9 101 -29z"/>
<path d="M6940 3320 c-142 -17 -249 -89 -278 -188 -25 -82 -24 -82 86 -82 l97
0 20 38 c29 54 74 74 162 70 63 -3 77 -7 99 -30 25 -24 49 -104 35 -112 -3 -2
-67 -9 -141 -16 -308 -27 -405 -86 -405 -245 1 -152 104 -235 291 -235 92 0
166 26 227 80 25 22 48 40 51 40 3 0 6 -11 6 -25 0 -14 13 -39 29 -57 27 -30
32 -32 99 -31 38 0 75 4 81 7 6 4 11 37 11 76 0 64 -2 69 -22 72 -23 3 -23 5
-28 208 -4 138 -10 220 -20 250 -21 66 -100 141 -170 162 -71 21 -149 27 -230
18z m222 -445 c10 -11 -10 -97 -29 -123 -63 -86 -258 -110 -308 -39 -8 12 -15
38 -15 58 0 44 31 75 85 85 85 16 258 28 267 19z"/>
<path d="M3341 3304 c-101 -36 -194 -125 -233 -222 -19 -47 -22 -75 -22 -162
0 -134 23 -196 100 -279 74 -81 149 -114 266 -119 198 -9 354 94 404 265 25
86 16 241 -18 315 -37 79 -98 142 -176 181 -61 29 -76 32 -172 34 -76 2 -117
-1 -149 -13z m229 -176 c55 -28 85 -72 100 -145 21 -101 -10 -209 -75 -259
-30 -22 -50 -29 -101 -32 -132 -9 -203 62 -212 209 -7 119 31 199 113 235 47
21 124 17 175 -8z"/>
<path d="M4284 3301 c-22 -10 -57 -33 -77 -51 l-37 -32 0 33 c0 56 -8 60 -101
57 l-84 -3 0 -387 0 -388 98 0 97 0 0 253 c0 234 2 254 20 285 57 92 210 106
252 22 16 -31 18 -68 18 -297 l0 -263 100 0 100 0 0 243 c0 276 7 305 75 347
45 28 130 30 168 5 42 -27 47 -61 47 -336 l0 -259 101 0 100 0 -3 298 c-3 285
-4 299 -26 347 -47 103 -119 145 -247 145 -96 0 -161 -26 -215 -86 l-36 -40
-27 39 c-41 57 -112 87 -207 87 -51 0 -88 -6 -116 -19z"/>
<path d="M5605 3296 c-28 -13 -63 -37 -77 -54 -29 -35 -38 -27 -38 34 l0 34
-90 0 -90 0 0 -390 0 -390 94 0 94 0 4 248 c3 228 5 250 24 282 59 102 212
118 261 28 16 -29 18 -65 21 -295 l4 -263 94 0 94 0 0 223 c1 250 8 298 52
344 61 64 175 64 222 0 20 -27 21 -42 24 -298 l3 -269 99 0 100 0 0 268 c0
295 -8 355 -58 427 -17 23 -49 51 -82 68 -52 27 -61 29 -150 25 -82 -3 -102
-7 -141 -30 -25 -15 -58 -43 -74 -63 l-27 -37 -18 29 c-25 41 -75 81 -118 93
-68 18 -172 12 -227 -14z"/>
<path d="M8298 3296 c-156 -64 -232 -189 -233 -381 0 -159 50 -260 166 -335
75 -48 142 -64 250 -58 136 7 244 69 294 168 l24 48 -85 7 c-84 7 -87 6 -114
-20 -27 -26 -103 -55 -144 -55 -95 0 -169 65 -191 168 l-7 32 278 0 277 0 -5
88 c-8 122 -36 192 -107 263 -75 74 -139 99 -259 99 -68 0 -99 -6 -144 -24z
m205 -140 c51 -22 107 -93 107 -137 0 -5 -73 -9 -175 -9 l-175 0 15 37 c21 50
52 82 100 104 48 22 85 24 128 5z"/>
<path d="M2650 2309 c-88 -14 -189 -70 -253 -139 -234 -252 -179 -709 104
-860 82 -44 148 -60 244 -60 221 0 401 121 459 306 6 20 2 22 -56 28 -35 4
-79 9 -98 12 -32 4 -37 2 -55 -32 -29 -54 -88 -99 -154 -118 -118 -33 -210
-11 -286 67 -59 62 -84 123 -92 231 -14 182 63 338 186 374 54 17 149 15 204
-4 51 -17 117 -82 140 -137 l15 -34 93 16 c91 16 94 17 91 41 -6 47 -56 135
-103 182 -57 57 -149 105 -238 124 -73 15 -119 16 -201 3z"/>
<path d="M7656 2221 l-59 -6 2 -92 2 -93 -75 0 -76 0 0 -85 0 -85 75 0 75 0 0
-219 0 -219 28 -53 c20 -39 41 -62 77 -84 45 -28 55 -30 149 -30 56 0 109 3
119 7 14 6 17 21 17 88 0 80 0 81 -22 74 -25 -8 -93 -7 -119 1 -10 3 -25 18
-36 33 -16 23 -18 52 -21 215 l-4 187 101 0 101 0 0 85 0 85 -100 0 -100 0 0
100 0 100 -37 -2 c-21 -1 -65 -4 -97 -7z"/>
<path d="M3602 2039 c-243 -42 -383 -309 -291 -555 29 -76 105 -156 187 -196
64 -32 72 -33 182 -33 106 0 120 2 177 29 69 31 148 107 181 172 65 130 51
313 -34 436 -77 111 -249 174 -402 147z m175 -190 c30 -15 52 -35 71 -67 24
-42 27 -57 27 -137 0 -81 -3 -95 -28 -138 -40 -67 -88 -90 -181 -85 -84 4
-125 27 -157 89 -45 90 -31 245 28 301 67 62 159 76 240 37z"/>
<path d="M4549 2040 c-61 -11 -85 -24 -136 -73 l-43 -41 0 52 0 52 -90 0 -90
0 0 -385 0 -385 95 0 95 0 0 223 c0 122 5 239 10 259 39 139 223 174 287 56
15 -29 18 -66 21 -285 l4 -253 94 0 94 0 0 265 c0 293 -6 342 -53 413 -55 81
-173 123 -288 102z"/>
<path d="M5383 2036 c-58 -14 -120 -53 -143 -88 -15 -22 -15 -21 -20 27 l-5
50 -87 3 -88 3 0 -386 0 -385 95 0 95 0 0 223 c0 128 5 239 11 262 37 136 222
170 286 53 16 -29 18 -65 21 -285 l3 -253 95 0 95 0 -3 293 c-3 283 -4 294
-27 345 -25 56 -75 107 -125 127 -49 20 -145 25 -203 11z"/>
<path d="M6140 2036 c-114 -25 -210 -101 -258 -204 -25 -53 -27 -67 -27 -187
0 -123 1 -133 29 -189 37 -76 96 -135 172 -172 55 -27 67 -29 174 -29 106 0
120 2 178 29 67 31 142 103 160 155 l10 28 -85 7 c-83 7 -84 7 -118 -23 -74
-65 -197 -66 -269 -3 -23 21 -55 89 -56 120 l0 22 271 0 272 0 -5 94 c-4 77
-10 105 -36 159 -50 108 -135 175 -251 197 -66 12 -91 12 -161 -4z m154 -160
c39 -16 83 -70 92 -112 l5 -29 -170 0 c-134 0 -171 3 -171 13 0 37 63 112 110
131 36 14 96 13 134 -3z"/>
<path d="M6986 2040 c-71 -13 -168 -64 -211 -111 -21 -23 -49 -67 -64 -98 -24
-51 -26 -66 -26 -186 0 -120 2 -135 26 -186 36 -76 86 -129 161 -170 62 -33
65 -34 183 -34 108 0 125 3 175 26 31 14 72 40 91 57 39 34 83 109 94 159 l6
32 -96 3 -97 3 -21 -37 c-48 -86 -190 -105 -266 -35 -42 39 -61 94 -61 182 0
159 78 240 212 222 48 -6 85 -31 113 -75 22 -34 46 -38 153 -25 l54 6 -7 36
c-10 56 -58 133 -104 168 -70 54 -210 82 -315 63z"/>
</g>
</svg>
